{
  "accessors": [
    {
      "bufferView": 2,
      "componentType": 5126,
      "count": 31957,
      "max": [
        0.31655898690223694,
        0.2931619882583618,
        0.16079330444335938
      ],
      "min": [
        0.008559942245483398,
        0.16517099738121033,
        -0.03268367052078247
      ],
      "type": "VEC3"
    },
    {
      "bufferView": 2,
      "byteOffset": 383484,
      "componentType": 5126,
      "count": 31957,
      "max": [
        0.9999240040779114,
        0.9999985098838806,
        0.9990478754043579
      ],
      "min": [
        -1.0,
        -0.9999904036521912,
        -1.0
      ],
      "type": "VEC3"
    },
    {
      "bufferView": 1,
      "componentType": 5126,
      "count": 31957,
      "max": [
        0.9978070259094238,
        0.998924970626831
      ],
      "min": [
        0.001187979942187667,
        0.0035019509959965944
      ],
      "type": "VEC2"
    },
    {
      "bufferView": 0,
      "componentType": 5125,
      "count": 31965,
      "type": "SCALAR"
    },
    {
      "bufferView": 2,
      "byteOffset": 766968,
      "componentType": 5126,
      "count": 31963,
      "max": [
        0.31655898690223694,
        0.04499046877026558,
        0.15872229635715485
      ],
      "min": [
        0.008559942245483398,
        -0.08299946039915085,
        -0.03452365845441818
      ],
      "type": "VEC3"
    },
    {
      "bufferView": 2,
      "byteOffset": 1150524,
      "componentType": 5126,
      "count": 31963,
      "max": [
        0.9999246001243591,
        0.999942421913147,
        0.9990463256835938
      ],
      "min": [
        -1.0,
        -0.9999985098838806,
        -1.0
      ],
      "type": "VEC3"
    },
    {
      "bufferView": 1,
      "byteOffset": 255656,
      "componentType": 5126,
      "count": 31963,
      "max": [
        0.9978070259094238,
        0.998924970626831
      ],
      "min": [
        0.001187979942187667,
        0.0035019509959965944
      ],
      "type": "VEC2"
    },
    {
      "bufferView": 0,
      "byteOffset": 127860,
      "componentType": 5125,
      "count": 31965,
      "type": "SCALAR"
    }
  ],
  "asset": {
    "extras": {
      "author": "₦₥₵ ฿₵ (https://sketchfab.com/nmcbc)",
      "license": "CC-BY-4.0 (http://creativecommons.org/licenses/by/4.0/)",
      "source": "https://sketchfab.com/3d-models/hitops-sneakers-black-3d-model-382b45ff846d427daed60970d17ca854",
      "title": "Hitops Sneakers Black 3D Model"
    },
    "generator": "Sketchfab-15.83.0",
    "version": "2.0"
  },
  "bufferViews": [
    {
      "buffer": 0,
      "byteLength": 255720,
      "name": "floatBufferViews",
      "target": 34963
    },
    {
      "buffer": 0,
      "byteLength": 511360,
      "byteOffset": 255720,
      "byteStride": 8,
      "name": "floatBufferViews",
      "target": 34962
    },
    {
      "buffer": 0,
      "byteLength": 1534080,
      "byteOffset": 767080,
      "byteStride": 12,
      "name": "floatBufferViews",
      "target": 34962
    }
  ],
  "buffers": [
    {
      "byteLength": 2301160,
      "uri": "scene.bin"
    }
  ],
  "images": [
    {
      "uri": "textures/Material.002_baseColor.png"
    }
  ],
  "materials": [
    {
      "doubleSided": true,
      "emissiveFactor": [
        1.0,
        1.0,
        1.0
      ],
      "emissiveTexture": {
        "index": 0
      },
      "name": "Material.002",
      "pbrMetallicRoughness": {
        "baseColorTexture": {
          "index": 0
        },
        "metallicFactor": 0.0,
        "roughnessFactor": 0.6
      }
    },
    {
      "doubleSided": true,
      "emissiveFactor": [
        1.0,
        1.0,
        1.0
      ],
      "emissiveTexture": {
        "index": 0
      },
      "name": "Material.001",
      "pbrMetallicRoughness": {
        "baseColorTexture": {
          "index": 0
        },
        "metallicFactor": 0.0,
        "roughnessFactor": 0.6
      }
    }
  ],
  "meshes": [
    {
      "name": "Material_001-material",
      "primitives": [
        {
          "attributes": {
            "NORMAL": 1,
            "POSITION": 0,
            "TEXCOORD_0": 2
          },
          "indices": 3,
          "material": 1,
          "mode": 4
        }
      ]
    },
    {
      "name": "Material_002-material",
      "primitives": [
        {
          "attributes": {
            "NORMAL": 5,
            "POSITION": 4,
            "TEXCOORD_0": 6
          },
          "indices": 7,
          "material": 0,
          "mode": 4
        }
      ]
    }
  ],
  "nodes": [
    {
      "children": [
        1
      ],
      "matrix": [
        1.0,
        0.0,
        0.0,
        0.0,
        0.0,
        2.220446049250313e-16,
        -1.0,
        0.0,
        0.0,
        1.0,
        2.220446049250313e-16,
        0.0,
        0.0,
        0.0,
        0.0,
        1.0
      ],
      "name": "Sketchfab_model"
    },
    {
      "children": [
        2,
        4
      ],
      "name": "Collada visual scene group"
    },
    {
      "children": [
        3
      ],
      "matrix": [
        1.0,
        2.22045e-16,
        2.22045e-16,
        0.0,
        -2.22045e-16,
        1.0,
        -1.19209e-07,
        0.0,
        -2.22045e-16,
        1.19209e-07,
        1.0,
        0.0,
        -0.1510523,
        -0.1025701,
        0.03541106,
        1.0
      ],
      "name": "Left"
    },
    {
      "mesh": 0,
      "name": "Material_001-material"
    },
    {
      "children": [
        5
      ],
      "matrix": [
        1.0,
        2.22045e-16,
        2.22045e-16,
        0.0,
        -2.22045e-16,
        1.0,
        -1.19209e-07,
        0.0,
        -2.22045e-16,
        1.19209e-07,
        1.0,
        0.0,
        -0.1510523,
        -0.1025701,
        0.03541106,
        1.0
      ],
      "name": "Right"
    },
    {
      "mesh": 1,
      "name": "Material_002-material"
    }
  ],
  "samplers": [
    {
      "magFilter": 9729,
      "minFilter": 9987,
      "wrapS": 10497,
      "wrapT": 10497
    }
  ],
  "scene": 0,
  "scenes": [
    {
      "name": "Sketchfab_Scene",
      "nodes": [
        0
      ]
    }
  ],
  "textures": [
    {
      "sampler": 0,
      "source": 0
    }
  ]
}
